<?xml version="1.0" encoding="utf-8"?>
<svg version="1.1" xmlns:xlink="http://www.w3.org/1999/xlink" width="61px" height="18px" xmlns="http://www.w3.org/2000/svg">
  <defs>
    <mask fill="white" id="clip10">
      <path d="M 9 18  C 3.95999999999998 18  0 14.04  0 9  C 0 3.96000000000004  3.95999999999998 0  9 0  L 23.2727272727283 0  L 52 0  C 57.04 0  61 3.96000000000004  61 9  C 61 14.04  57.04 18  52 18  L 23.2727272727283 18  L 9 18  Z " fill-rule="evenodd" />
    </mask>
  </defs>
  <g transform="matrix(1 0 0 1 -374 -803 )">
    <path d="M 9 18  C 3.95999999999998 18  0 14.04  0 9  C 0 3.96000000000004  3.95999999999998 0  9 0  L 23.2727272727283 0  L 52 0  C 57.04 0  61 3.96000000000004  61 9  C 61 14.04  57.04 18  52 18  L 23.2727272727283 18  L 9 18  Z " fill-rule="nonzero" fill="#ffffff" stroke="none" transform="matrix(1 0 0 1 374 803 )" />
    <path d="M 9 18  C 3.95999999999998 18  0 14.04  0 9  C 0 3.96000000000004  3.95999999999998 0  9 0  L 23.2727272727283 0  L 52 0  C 57.04 0  61 3.96000000000004  61 9  C 61 14.04  57.04 18  52 18  L 23.2727272727283 18  L 9 18  Z " stroke-width="2" stroke="#797979" fill="none" transform="matrix(1 0 0 1 374 803 )" mask="url(#clip10)" />
  </g>
</svg>