<?xml version="1.0" encoding="utf-8"?>
<svg version="1.1" xmlns:xlink="http://www.w3.org/1999/xlink" width="21px" height="21px" xmlns="http://www.w3.org/2000/svg">
  <g transform="matrix(1 0 0 1 -238 -782 )">
    <path d="M 248.5 782  C 254.38 782  259 786.62  259 792.5  C 259 798.38  254.38 803  248.5 803  C 242.62 803  238 798.38  238 792.5  C 238 786.62  242.62 782  248.5 782  Z " fill-rule="nonzero" fill="#9e99b9" stroke="none" fill-opacity="0" />
    <path d="M 248.5 782.5  C 254.1 782.5  258.5 786.9  258.5 792.5  C 258.5 798.1  254.1 802.5  248.5 802.5  C 242.9 802.5  238.5 798.1  238.5 792.5  C 238.5 786.9  242.9 782.5  248.5 782.5  Z " stroke-width="1" stroke="#000000" fill="none" />
  </g>
</svg>