<?xml version="1.0" encoding="utf-8"?>
<svg version="1.1" xmlns:xlink="http://www.w3.org/1999/xlink" width="15px" height="15px" xmlns="http://www.w3.org/2000/svg">
  <g transform="matrix(1 0 0 1 -116 -362 )">
    <path d="M 123.5 362  C 127.7 362  131 365.3  131 369.5  C 131 373.7  127.7 377  123.5 377  C 119.3 377  116 373.7  116 369.5  C 116 365.3  119.3 362  123.5 362  Z " fill-rule="nonzero" fill="#ffffff" stroke="none" />
    <path d="M 123.5 362.5  C 127.42 362.5  130.5 365.58  130.5 369.5  C 130.5 373.42  127.42 376.5  123.5 376.5  C 119.58 376.5  116.5 373.42  116.5 369.5  C 116.5 365.58  119.58 362.5  123.5 362.5  Z " stroke-width="1" stroke="#797979" fill="none" />
  </g>
</svg>