<?xml version="1.0" encoding="utf-8"?>
<svg version="1.1" xmlns:xlink="http://www.w3.org/1999/xlink" width="14px" height="17px" xmlns="http://www.w3.org/2000/svg">
  <g transform="matrix(1 0 0 1 -402 -105 )">
    <path d="M 7 16.2410714285714  C 7.08974358974359 16.2410714285714  7.13461538461539 16.1904761904762  7.13461538461538 16.0892857142857  C 7.13461538461539 15.9880952380952  7.08974358974359 15.9375  7 15.9375  C 6.66907051282051 15.9375  6.38441506410257 15.8031063988095  6.14603365384615 15.5343191964286  C 5.90765224358974 15.2655319940476  5.78846153846154 14.944568452381  5.78846153846154 14.5714285714286  C 5.78846153846154 14.4702380952381  5.74358974358974 14.4196428571429  5.65384615384615 14.4196428571429  C 5.56410256410256 14.4196428571429  5.51923076923077 14.4702380952381  5.51923076923077 14.5714285714286  C 5.51923076923077 15.0331101190476  5.66366185897436 15.4268043154762  5.95252403846154 15.7525111607143  C 6.24138621794872 16.0782180059524  6.59054487179487 16.2410714285714  7 16.2410714285714  Z M 13.234375 12.5223214285714  C 13.464342948718 12.813244047619  13.7195512820513 13.0915178571429  14 13.3571428571429  C 14 13.6860119047619  13.8934294871795 13.9706101190476  13.6802884615385 14.2109375  C 13.4671474358974 14.4512648809524  13.2147435897436 14.5714285714286  12.9230769230769 14.5714285714286  L 9.15384615384615 14.5714285714286  C 9.15384615384615 15.2418154761905  8.94350961538462 15.8141741071429  8.52283653846154 16.2885044642857  C 8.10216346153846 16.7628348214286  7.59455128205128 17  7 17  C 6.40544871794872 17  5.89783653846154 16.7628348214286  5.47716346153846 16.2885044642857  C 5.05649038461539 15.8141741071429  4.84615384615385 15.2418154761905  4.84615384615385 14.5714285714286  L 1.07692307692308 14.5714285714286  C 0.78525641025641 14.5714285714286  0.532852564102564 14.4512648809524  0.319711538461538 14.2109375  C 0.106570512820513 13.9706101190476  0 13.6860119047619  0 13.3571428571429  C 0.280448717948718 13.0915178571429  0.535657051282051 12.813244047619  0.765625 12.5223214285714  C 0.995592948717949 12.2313988095238  1.23397435897436 11.853515625  1.48076923076923 11.388671875  C 1.7275641025641 10.923828125  1.9364983974359 10.422619047619  2.10757211538462 9.88504464285714  C 2.27864583333333 9.34747023809524  2.41887019230769 8.69605654761905  2.52824519230769 7.93080357142857  C 2.63762019230769 7.16555059523809  2.69230769230769 6.34337797619047  2.69230769230769 5.46428571428571  C 2.69230769230769 4.50297619047619  3.02043269230769 3.60965401785714  3.67668269230769 2.78431919642857  C 4.33293269230769 1.958984375  5.19391025641026 1.45777529761905  6.25961538461539 1.28069196428571  C 6.21474358974359 1.16052827380952  6.19230769230769 1.03720238095238  6.19230769230769 0.910714285714286  C 6.19230769230769 0.657738095238095  6.27083333333333 0.442708333333333  6.42788461538462 0.265625  C 6.5849358974359 0.0885416666666673  6.77564102564103 0  7 0  C 7.22435897435898 0  7.4150641025641 0.0885416666666673  7.57211538461538 0.265625  C 7.72916666666667 0.442708333333333  7.80769230769231 0.657738095238095  7.80769230769231 0.910714285714286  C 7.80769230769231 1.03720238095238  7.78525641025641 1.16052827380952  7.74038461538462 1.28069196428571  C 8.80608974358974 1.45777529761905  9.66706730769231 1.958984375  10.3233173076923 2.78431919642857  C 10.9795673076923 3.60965401785714  11.3076923076923 4.50297619047619  11.3076923076923 5.46428571428571  C 11.3076923076923 6.34337797619047  11.3623798076923 7.16555059523809  11.4717548076923 7.93080357142857  C 11.5811298076923 8.69605654761905  11.7213541666667 9.34747023809524  11.8924278846154 9.88504464285714  C 12.0635016025641 10.422619047619  12.2724358974359 10.923828125  12.5192307692308 11.388671875  C 12.7660256410256 11.853515625  13.0044070512821 12.2313988095238  13.234375 12.5223214285714  Z " fill-rule="nonzero" fill="#666666" stroke="none" transform="matrix(1 0 0 1 402 105 )" />
  </g>
</svg>