<?xml version="1.0" encoding="utf-8"?>
<svg version="1.1" xmlns:xlink="http://www.w3.org/1999/xlink" width="19px" height="17px" xmlns="http://www.w3.org/2000/svg">
  <g transform="matrix(1 0 0 1 -435 -105 )">
    <path d="M 2.61886160714286 14.2662760416667  C 2.68247767857143 14.3326822916667  2.71428571428571 14.4175347222222  2.71428571428571 14.5208333333333  L 2.71428571428571 16.6458333333333  C 2.71428571428571 16.7491319444444  2.68247767857143 16.833984375  2.61886160714286 16.900390625  C 2.55524553571429 16.966796875  2.47395833333333 17  2.375 17  L 0.339285714285714 17  C 0.240327380952381 17  0.159040178571429 16.966796875  0.0954241071428572 16.900390625  C 0.0318080357142857 16.833984375  0 16.7491319444444  0 16.6458333333333  L 0 14.5208333333333  C 0 14.4175347222222  0.0318080357142857 14.3326822916667  0.0954241071428572 14.2662760416667  C 0.159040178571429 14.1998697916667  0.240327380952381 14.1666666666667  0.339285714285714 14.1666666666667  L 2.375 14.1666666666667  C 2.47395833333333 14.1666666666667  2.55524553571429 14.1998697916667  2.61886160714286 14.2662760416667  Z M 6.69029017857143 12.849609375  C 6.75390625 12.916015625  6.78571428571429 13.0008680555556  6.78571428571429 13.1041666666667  L 6.78571428571429 16.6458333333333  C 6.78571428571429 16.7491319444444  6.75390625 16.833984375  6.69029017857143 16.900390625  C 6.62667410714286 16.966796875  6.54538690476191 17  6.44642857142857 17  L 4.41071428571429 17  C 4.31175595238095 17  4.23046875 16.966796875  4.16685267857143 16.900390625  C 4.10323660714286 16.833984375  4.07142857142857 16.7491319444444  4.07142857142857 16.6458333333333  L 4.07142857142857 13.1041666666667  C 4.07142857142857 13.0008680555556  4.10323660714286 12.916015625  4.16685267857143 12.849609375  C 4.23046875 12.783203125  4.31175595238095 12.75  4.41071428571429 12.75  L 6.44642857142857 12.75  C 6.54538690476191 12.75  6.62667410714286 12.783203125  6.69029017857143 12.849609375  Z M 10.76171875 10.0162760416667  C 10.8253348214286 10.0826822916667  10.8571428571429 10.1675347222222  10.8571428571429 10.2708333333333  L 10.8571428571429 16.6458333333333  C 10.8571428571429 16.7491319444444  10.8253348214286 16.833984375  10.76171875 16.900390625  C 10.6981026785714 16.966796875  10.6168154761905 17  10.5178571428571 17  L 8.48214285714286 17  C 8.38318452380953 17  8.30189732142857 16.966796875  8.23828125 16.900390625  C 8.17466517857143 16.833984375  8.14285714285714 16.7491319444444  8.14285714285714 16.6458333333333  L 8.14285714285714 10.2708333333333  C 8.14285714285714 10.1675347222222  8.17466517857143 10.0826822916667  8.23828125 10.0162760416667  C 8.30189732142857 9.94986979166667  8.38318452380953 9.91666666666667  8.48214285714286 9.91666666666667  L 10.5178571428571 9.91666666666667  C 10.6168154761905 9.91666666666667  10.6981026785714 9.94986979166667  10.76171875 10.0162760416667  Z M 14.8331473214286 5.76627604166667  C 14.8967633928571 5.83268229166667  14.9285714285714 5.91753472222222  15 6.02083333333333  L 15 16.6458333333333  C 14.9285714285714 16.7491319444444  14.8967633928571 16.833984375  14.8331473214286 16.900390625  C 14.76953125 16.966796875  14.688244047619 17  14.5892857142857 17  L 12.5535714285714 17  C 12.4546130952381 17  12.3733258928571 16.966796875  12.3097098214286 16.900390625  C 12.24609375 16.833984375  12.2142857142857 16.7491319444444  12 16.6458333333333  L 12 6.02083333333333  C 12.2142857142857 5.91753472222222  12.24609375 5.83268229166667  12.3097098214286 5.76627604166667  C 12.3733258928571 5.69986979166667  12.4546130952381 5.66666666666667  12.5535714285714 5.66666666666667  L 14.5892857142857 5.66666666666667  C 14.688244047619 5.66666666666667  14.76953125 5.69986979166667  14.8331473214286 5.76627604166667  Z M 18.9045758928571 0.099609375  C 18.9681919642857 0.166015625  19 0.250868055555553  19 0.354166666666667  L 19 16.6458333333333  C 19 16.7491319444444  18.9681919642857 16.833984375  18.9045758928571 16.900390625  C 18.8409598214286 16.966796875  18.7596726190476 17  18.6607142857143 17  L 16.625 17  C 16.5260416666667 17  16.4447544642857 16.966796875  16.3811383928571 16.900390625  C 16.3175223214286 16.833984375  16.2857142857143 16.7491319444444  16 16.6458333333333  L 16 0.354166666666667  C 16.2857142857143 0.250868055555553  16.3175223214286 0.166015625  16.3811383928571 0.099609375  C 16.4447544642857 0.033203125  16.5260416666667 0  16.625 0  L 18.6607142857143 0  C 18.7596726190476 0  18.8409598214286 0.033203125  18.9045758928571 0.099609375  Z " fill-rule="nonzero" fill="#666666" stroke="none" transform="matrix(1 0 0 1 435 105 )" />
  </g>
</svg>