<?xml version="1.0" encoding="utf-8"?>
<svg version="1.1" xmlns:xlink="http://www.w3.org/1999/xlink" width="18px" height="17px" xmlns="http://www.w3.org/2000/svg">
  <g transform="matrix(1 0 0 1 -376 -135 )">
    <path d="M 11.0390625 10.42578125  C 11.9873798076923 9.53014823717949  12.4615384615385 8.45232371794872  12.4615384615385 7.19230769230769  C 12.4615384615385 5.93229166666667  11.9873798076923 4.8544671474359  11.0390625 3.95883413461538  C 10.0907451923077 3.06320112179487  8.94951923076923 2.61538461538462  7.61538461538462 2.61538461538462  C 6.28125 2.61538461538462  5.14002403846154 3.06320112179487  4.19170673076923 3.95883413461538  C 3.24338942307692 4.8544671474359  2.76923076923077 5.93229166666667  2.76923076923077 7.19230769230769  C 2.76923076923077 8.45232371794872  3.24338942307692 9.53014823717949  4.19170673076923 10.42578125  C 5.14002403846154 11.3214142628205  6.28125 11.7692307692308  7.61538461538462 11.7692307692308  C 8.94951923076923 11.7692307692308  10.0907451923077 11.3214142628205  11.0390625 10.42578125  Z M 17.5997596153846 14.7728365384615  C 17.8665865384615 15.0248397435897  18 15.3313301282051  18 15.6923076923077  C 18 16.0464743589744  17.8629807692308 16.3529647435897  17.5889423076923 16.6117788461538  C 17.3149038461538 16.8705929487179  16.9903846153846 17  16.6153846153846 17  C 16.2259615384615 17  15.9014423076923 16.8705929487179  15.6418269230769 16.6117788461538  L 11.9314903846154 13.1177884615385  C 10.640625 13.9623397435897  9.20192307692308 14.3846153846154  7.61538461538462 14.3846153846154  C 6.58413461538462 14.3846153846154  5.59795673076923 14.1956129807692  4.65685096153846 13.8176081730769  C 3.71574519230769 13.4396033653846  2.90444711538462 12.9287860576923  2.22295673076923 12.28515625  C 1.54146634615385 11.6415264423077  1.00060096153846 10.8753004807692  0.600360576923077 9.98647836538462  C 0.200120192307692 9.09765625  0 8.16626602564102  0 7.19230769230769  C 0 6.21834935897436  0.200120192307692 5.28695913461538  0.600360576923077 4.39813701923077  C 1.00060096153846 3.50931490384615  1.54146634615385 2.74308894230769  2.22295673076923 2.09945913461538  C 2.90444711538462 1.45582932692308  3.71574519230769 0.945012019230769  4.65685096153846 0.567007211538462  C 5.59795673076923 0.189002403846153  6.58413461538462 0  7.61538461538462 0  C 8.64663461538462 0  9.6328125 0.189002403846153  10.5739182692308 0.567007211538462  C 11.5150240384615 0.945012019230769  12.3263221153846 1.45582932692308  13.0078125 2.09945913461538  C 13.6893028846154 2.74308894230769  14.2301682692308 3.50931490384615  14.6304086538462 4.39813701923077  C 15.0306490384615 5.28695913461538  15.2307692307692 6.21834935897436  15.2307692307692 7.19230769230769  C 15.2307692307692 8.69070512820513  14.7836538461538 10.0494791666667  13.8894230769231 11.2686298076923  L 17.5997596153846 14.7728365384615  Z " fill-rule="nonzero" fill="#7f7f7f" stroke="none" transform="matrix(1 0 0 1 376 135 )" />
  </g>
</svg>