<?xml version="1.0" encoding="utf-8"?>
<svg version="1.1" xmlns:xlink="http://www.w3.org/1999/xlink" width="45px" height="38px" xmlns="http://www.w3.org/2000/svg">
  <g transform="matrix(1 0 0 1 -131 -323 )">
    <path d="M 131 323  L 176 323  L 176 361  L 131 361  L 131 323  " fill-rule="nonzero" fill="#cccccc" stroke="none" />
    <path d="M 134 326  L 173 326  L 173 358  L 134 358  L 134 326  " fill-rule="nonzero" fill="#ffffff" stroke="none" />
    <path d="M 157.25 334.4  C 155.654 334.4  154.4 333.146  154.4 331.55  C 154.4 329.954  155.654 328.7  157.25 328.7  C 158.846 328.7  160.1 329.954  160.1 331.55  C 160.1 333.146  158.846 334.4  157.25 334.4  " fill-rule="nonzero" fill="#cccccc" stroke="none" />
    <path d="M 135 357  L 135 340.5  L 144.25 333  L 157.2 341.8  L 164.6 337.5  L 172 341.8  L 172 357  L 135 357  " fill-rule="nonzero" fill="#169bd5" stroke="none" />
  </g>
</svg>