<?xml version="1.0" encoding="utf-8"?>
<svg version="1.1" xmlns:xlink="http://www.w3.org/1999/xlink" width="120px" height="112px" xmlns="http://www.w3.org/2000/svg">
  <g transform="matrix(1 0 0 1 -107 -388 )">
    <path d="M 107 388  L 227 388  L 227 500  L 107 500  L 107 388  " fill-rule="nonzero" fill="#cccccc" stroke="none" />
    <path d="M 115 396  L 219 396  L 219 492  L 115 492  L 115 396  " fill-rule="nonzero" fill="#ffffff" stroke="none" />
    <path d="M 177.8 421.6  C 173.096 421.6  169.4 417.904  169.4 413.2  C 169.4 408.496  173.096 404.8  177.8 404.8  C 182.504 404.8  186.2 408.496  186.2 413.2  C 186.2 417.904  182.504 421.6  177.8 421.6  " fill-rule="nonzero" fill="#cccccc" stroke="none" />
    <path d="M 118 489  L 118 439.5  L 142.5 417  L 176.8 438.6  L 196.4 430.5  L 216 438.6  L 216 489  L 118 489  " fill-rule="nonzero" fill="#169bd5" stroke="none" />
  </g>
</svg>