<?xml version="1.0" encoding="utf-8"?>
<svg version="1.1" xmlns:xlink="http://www.w3.org/1999/xlink" width="95px" height="71px" xmlns="http://www.w3.org/2000/svg">
  <g transform="matrix(1 0 0 1 -118 -199 )">
    <path d="M 118 199  L 213 199  L 213 270  L 118 270  L 118 199  " fill-rule="nonzero" fill="#cccccc" stroke="none" />
    <path d="M 123 204  L 208 204  L 208 265  L 123 265  L 123 204  " fill-rule="nonzero" fill="#ffffff" stroke="none" />
    <path d="M 172.725 220.3  C 169.743 220.3  167.4 217.957  167.4 214.975  C 167.4 211.993  169.743 209.65  172.725 209.65  C 175.707 209.65  178.05 211.993  178.05 214.975  C 178.05 217.957  175.707 220.3  172.725 220.3  " fill-rule="nonzero" fill="#cccccc" stroke="none" />
    <path d="M 125 263  L 125 231.65  L 145.25 217.4  L 173.6 237.44  L 189.8 225.95  L 206 237.44  L 206 263  L 125 263  " fill-rule="nonzero" fill="#169bd5" stroke="none" />
  </g>
</svg>