<?xml version="1.0" encoding="utf-8"?>
<svg version="1.1" xmlns:xlink="http://www.w3.org/1999/xlink" width="19px" height="17px" xmlns="http://www.w3.org/2000/svg">
  <g transform="matrix(1 0 0 1 -390 -137 )">
    <path d="M 11.65234375 10.42578125  C 12.6533453525641 9.53014823717949  13.1538461538462 8.45232371794872  13.1538461538462 7.19230769230769  C 13.1538461538462 5.93229166666667  12.6533453525641 4.8544671474359  11.65234375 3.95883413461538  C 10.6513421474359 3.06320112179487  9.44671474358974 2.61538461538462  8.03846153846154 2.61538461538462  C 6.63020833333333 2.61538461538462  5.42558092948718 3.06320112179487  4.42457932692308 3.95883413461538  C 3.42357772435897 4.8544671474359  2.92307692307692 5.93229166666667  2.92307692307692 7.19230769230769  C 2.92307692307692 8.45232371794872  3.42357772435897 9.53014823717949  4.42457932692308 10.42578125  C 5.42558092948718 11.3214142628205  6.63020833333333 11.7692307692308  8.03846153846154 11.7692307692308  C 9.44671474358974 11.7692307692308  10.6513421474359 11.3214142628205  11.65234375 10.42578125  Z M 18.5775240384615 14.7728365384615  C 18.8591746794872 15.0248397435897  19 15.3313301282051  19 15.6923076923077  C 19 16.0464743589744  18.8553685897436 16.3529647435897  18.5661057692308 16.6117788461538  C 18.2768429487179 16.8705929487179  17.9342948717949 17  17.5384615384615 17  C 17.1274038461538 17  16.7848557692308 16.8705929487179  16.5108173076923 16.6117788461538  L 12.5943509615385 13.1177884615385  C 11.2317708333333 13.9623397435897  9.71314102564103 14.3846153846154  8.03846153846154 14.3846153846154  C 6.94991987179487 14.3846153846154  5.90895432692308 14.1956129807692  4.91556490384615 13.8176081730769  C 3.92217548076923 13.4396033653846  3.06580528846154 12.9287860576923  2.34645432692308 12.28515625  C 1.62710336538462 11.6415264423077  1.05618990384615 10.8753004807692  0.633713942307692 9.98647836538462  C 0.211237980769231 9.09765625  0 8.16626602564102  0 7.19230769230769  C 0 6.21834935897436  0.211237980769231 5.28695913461538  0.633713942307692 4.39813701923077  C 1.05618990384615 3.50931490384615  1.62710336538462 2.74308894230769  2.34645432692308 2.09945913461538  C 3.06580528846154 1.45582932692308  3.92217548076923 0.945012019230769  4.91556490384615 0.567007211538462  C 5.90895432692308 0.189002403846153  6.94991987179487 0  8.03846153846154 0  C 9.12700320512821 0  10.16796875 0.189002403846153  11.1613581730769 0.567007211538462  C 12.1547475961538 0.945012019230769  13.0111177884615 1.45582932692308  13.73046875 2.09945913461538  C 14.4498197115385 2.74308894230769  15.0207331730769 3.50931490384615  15.4432091346154 4.39813701923077  C 15.8656850961538 5.28695913461538  16.0769230769231 6.21834935897436  16.0769230769231 7.19230769230769  C 16.0769230769231 8.69070512820513  15.604967948718 10.0494791666667  14.6610576923077 11.2686298076923  L 18.5775240384615 14.7728365384615  Z " fill-rule="nonzero" fill="#7f7f7f" stroke="none" transform="matrix(1 0 0 1 390 137 )" />
  </g>
</svg>