<?xml version="1.0" encoding="utf-8"?>
<svg version="1.1" xmlns:xlink="http://www.w3.org/1999/xlink" width="28px" height="28px" xmlns="http://www.w3.org/2000/svg">
  <g transform="matrix(1 0 0 1 -118 -478 )">
    <path d="M 132 478  C 139.84 478  146 484.16  146 492  C 146 499.84  139.84 506  132 506  C 124.16 506  118 499.84  118 492  C 118 484.16  124.16 478  132 478  Z " fill-rule="nonzero" fill="#f6f6f6" stroke="none" />
    <path d="M 132 478.5  C 139.56 478.5  145.5 484.44  145.5 492  C 145.5 499.56  139.56 505.5  132 505.5  C 124.44 505.5  118.5 499.56  118.5 492  C 118.5 484.44  124.44 478.5  132 478.5  Z " stroke-width="1" stroke="#666666" fill="none" />
  </g>
</svg>