<?xml version="1.0" encoding="utf-8"?>
<svg version="1.1" xmlns:xlink="http://www.w3.org/1999/xlink" width="20px" height="20px" xmlns="http://www.w3.org/2000/svg">
  <g transform="matrix(1 0 0 1 -130 -233 )">
    <path d="M 140 233  C 145.6 233  150 237.4  150 243  C 150 248.6  145.6 253  140 253  C 134.4 253  130 248.6  130 243  C 130 237.4  134.4 233  140 233  Z " fill-rule="nonzero" fill="#7f7f7f" stroke="none" />
    <path d="M 140 233.5  C 145.32 233.5  149.5 237.68  149.5 243  C 149.5 248.32  145.32 252.5  140 252.5  C 134.68 252.5  130.5 248.32  130.5 243  C 130.5 237.68  134.68 233.5  140 233.5  Z " stroke-width="1" stroke="#797979" fill="none" />
  </g>
</svg>