<?xml version="1.0" encoding="utf-8"?>
<svg version="1.1" xmlns:xlink="http://www.w3.org/1999/xlink" width="20px" height="20px" xmlns="http://www.w3.org/2000/svg">
  <g transform="matrix(1 0 0 1 -423 -234 )">
    <path d="M 433 234  C 438.6 234  443 238.4  443 244  C 443 249.6  438.6 254  433 254  C 427.4 254  423 249.6  423 244  C 423 238.4  427.4 234  433 234  Z " fill-rule="nonzero" fill="#ffffff" stroke="none" />
    <path d="M 433 234.5  C 438.32 234.5  442.5 238.68  442.5 244  C 442.5 249.32  438.32 253.5  433 253.5  C 427.68 253.5  423.5 249.32  423.5 244  C 423.5 238.68  427.68 234.5  433 234.5  Z " stroke-width="1" stroke="#797979" fill="none" />
  </g>
</svg>