<?xml version="1.0" encoding="utf-8"?>
<svg version="1.1" xmlns:xlink="http://www.w3.org/1999/xlink" width="114px" height="98px" xmlns="http://www.w3.org/2000/svg">
  <g transform="matrix(1 0 0 1 -110 -293 )">
    <path d="M 110 293  L 224 293  L 224 391  L 110 391  L 110 293  " fill-rule="nonzero" fill="#cccccc" stroke="none" />
    <path d="M 117 300  L 217 300  L 217 384  L 117 384  L 117 300  " fill-rule="nonzero" fill="#ffffff" stroke="none" />
    <path d="M 176.63 322.4  C 172.514 322.4  169.28 319.166  169.28 315.05  C 169.28 310.934  172.514 307.7  176.63 307.7  C 180.746 307.7  183.98 310.934  183.98 315.05  C 183.98 319.166  180.746 322.4  176.63 322.4  " fill-rule="nonzero" fill="#cccccc" stroke="none" />
    <path d="M 120 382  L 120 338.55  L 143.75 318.8  L 177 341.252631578947  L 196 330.65  L 215 341.252631578947  L 215 382  L 120 382  " fill-rule="nonzero" fill="#169bd5" stroke="none" />
  </g>
</svg>