<?xml version="1.0" encoding="utf-8"?>
<svg version="1.1" xmlns:xlink="http://www.w3.org/1999/xlink" width="143px" height="115px" xmlns="http://www.w3.org/2000/svg">
  <g transform="matrix(1 0 0 1 -188 -405 )">
    <path d="M 188 405  L 331 405  L 331 520  L 188 520  L 188 405  " fill-rule="nonzero" fill="#cccccc" stroke="none" />
    <path d="M 196 413  L 323 413  L 323 512  L 196 512  L 196 413  " fill-rule="nonzero" fill="#ffffff" stroke="none" />
    <path d="M 270.985 439.5  C 266.155 439.5  262.36 435.705  262.36 430.875  C 262.36 426.045  266.155 422.25  270.985 422.25  C 275.815 422.25  279.61 426.045  279.61 430.875  C 279.61 435.705  275.815 439.5  270.985 439.5  " fill-rule="nonzero" fill="#cccccc" stroke="none" />
    <path d="M 199 509  L 199 457.85  L 229.25 434.6  L 271.6 464.125874125874  L 295.8 448.55  L 320 464.125874125874  L 320 509  L 199 509  " fill-rule="nonzero" fill="#169bd5" stroke="none" />
  </g>
</svg>