<?xml version="1.0" encoding="utf-8"?>
<svg version="1.1" xmlns:xlink="http://www.w3.org/1999/xlink" width="97px" height="81px" xmlns="http://www.w3.org/2000/svg">
  <g transform="matrix(1 0 0 1 -115 -259 )">
    <path d="M 115 259  L 212 259  L 212 340  L 115 340  L 115 259  " fill-rule="nonzero" fill="#cccccc" stroke="none" />
    <path d="M 121 265  L 206 265  L 206 334  L 121 334  L 121 265  " fill-rule="nonzero" fill="#ffffff" stroke="none" />
    <path d="M 171.515 283.3  C 168.113 283.3  165.44 280.627  165.44 277.225  C 165.44 273.823  168.113 271.15  171.515 271.15  C 174.917 271.15  177.59 273.823  177.59 277.225  C 177.59 280.627  174.917 283.3  171.515 283.3  " fill-rule="nonzero" fill="#cccccc" stroke="none" />
    <path d="M 123 332  L 123 296.25  L 143.25 280  L 171.6 299.432989690722  L 187.8 289.75  L 204 299.432989690722  L 204 332  L 123 332  " fill-rule="nonzero" fill="#169bd5" stroke="none" />
  </g>
</svg>