<?xml version="1.0" encoding="utf-8"?>
<svg version="1.1" xmlns:xlink="http://www.w3.org/1999/xlink" width="90px" height="90px" xmlns="http://www.w3.org/2000/svg">
  <g transform="matrix(1 0 0 1 -1025 -409 )">
    <path d="M 1025 409  L 1115 409  L 1115 499  L 1025 499  L 1025 409  " fill-rule="nonzero" fill="#cccccc" stroke="none" />
    <path d="M 1031 415  L 1109 415  L 1109 493  L 1031 493  L 1031 415  " fill-rule="nonzero" fill="#ffffff" stroke="none" />
    <path d="M 1078.55 436  C 1074.77 436  1071.8 433.03  1071.8 429.25  C 1071.8 425.47  1074.77 422.5  1078.55 422.5  C 1082.33 422.5  1085.3 425.47  1085.3 429.25  C 1085.3 433.03  1082.33 436  1078.55 436  " fill-rule="nonzero" fill="#cccccc" stroke="none" />
    <path d="M 1034 491  L 1034 450.85  L 1052.25 432.6  L 1077.8 447.2  L 1092.4 443.55  L 1107 447.2  L 1107 491  L 1034 491  " fill-rule="nonzero" fill="#169bd5" stroke="none" />
  </g>
</svg>