<?xml version="1.0" encoding="utf-8"?>
<svg version="1.1" xmlns:xlink="http://www.w3.org/1999/xlink" width="12px" height="15px" xmlns="http://www.w3.org/2000/svg">
  <g transform="matrix(1 0 0 1 -448 -438 )">
    <path d="M 11.7938144329897 7.15430861723447  C 11.9312714776632 7.25450901803607  12 7.36973947895792  12 7.5  C 12 7.63026052104208  11.9312714776632 7.74549098196393  11.7938144329897 7.84569138276553  L 2.18556701030928 14.8496993987976  C 2.04810996563574 14.9498997995992  1.89003436426117 15  1.71134020618557 15  C 1.53264604810997 15  1.3745704467354 14.9498997995992  1.23711340206186 14.8496993987976  L 0.206185567010309 14.0981963927856  C 0.0687285223367698 13.997995991984  0 13.8827655310621  0 13.75250501002  C 0 13.622244488978  0.0687285223367698 13.5070140280561  0.206185567010309 13.4068136272545  L 8.30927835051546 7.5  L 0.206185567010309 1.59318637274549  C 0.0687285223367698 1.49298597194389  0 1.37775551102204  0 1.24749498997996  C 0 1.11723446893787  0.0687285223367698 1.00200400801603  0.206185567010309 0.901803607214428  L 1.23711340206186 0.150300601202405  C 1.3745704467354 0.0501002004008011  1.53264604810997 0  1.71134020618557 0  C 1.89003436426117 0  2.04810996563574 0.0501002004008011  2.18556701030928 0.150300601202405  L 11.7938144329897 7.15430861723447  Z " fill-rule="nonzero" fill="#7f7f7f" stroke="none" transform="matrix(1 0 0 1 448 438 )" />
  </g>
</svg>