<?xml version="1.0" encoding="utf-8"?>
<svg version="1.1" xmlns:xlink="http://www.w3.org/1999/xlink" width="343px" height="175px" xmlns="http://www.w3.org/2000/svg">
  <g transform="matrix(1 0 0 1 -115 -167 )">
    <path d="M 115 167  L 458 167  L 458 342  L 115 342  L 115 167  " fill-rule="nonzero" fill="#cccccc" stroke="none" />
    <path d="M 127 179  L 446 179  L 446 330  L 127 330  L 127 179  " fill-rule="nonzero" fill="#ffffff" stroke="none" />
    <path d="M 306.485 219.5  C 299.135 219.5  293.36 213.725  293.36 206.375  C 293.36 199.025  299.135 193.25  306.485 193.25  C 313.835 193.25  319.61 199.025  319.61 206.375  C 319.61 213.725  313.835 219.5  306.485 219.5  " fill-rule="nonzero" fill="#cccccc" stroke="none" />
    <path d="M 132 326  L 132 247.9  L 209.5 212.4  L 318 282.530612244898  L 380 233.7  L 442 282.530612244898  L 442 326  L 132 326  " fill-rule="nonzero" fill="#169bd5" stroke="none" />
  </g>
</svg>